<?xml version="1.0" encoding="UTF-8" standalone="no"?>
<!-- Created with Inkscape (http://www.inkscape.org/) -->

<svg
   xmlns:dc="http://purl.org/dc/elements/1.1/"
   xmlns:cc="http://creativecommons.org/ns#"
   xmlns:rdf="http://www.w3.org/1999/02/22-rdf-syntax-ns#"
   xmlns:svg="http://www.w3.org/2000/svg"
   xmlns="http://www.w3.org/2000/svg"
   xmlns:sodipodi="http://sodipodi.sourceforge.net/DTD/sodipodi-0.dtd"
   xmlns:inkscape="http://www.inkscape.org/namespaces/inkscape"
   width="128"
   height="140"
   viewBox="0 0 128 140"
   id="svg3336"
   version="1.1"
   inkscape:version="0.91 r13725"
   sodipodi:docname="sand_mask.svg">
  <defs
     id="defs3338" />
  <sodipodi:namedview
     id="base"
     pagecolor="#ffffff"
     bordercolor="#666666"
     borderopacity="1.0"
     inkscape:pageopacity="0.0"
     inkscape:pageshadow="2"
     inkscape:zoom="5.6"
     inkscape:cx="77.552952"
     inkscape:cy="97.486856"
     inkscape:document-units="px"
     inkscape:current-layer="layer1"
     showgrid="false"
     units="px"
     inkscape:window-width="1920"
     inkscape:window-height="1023"
     inkscape:window-x="0"
     inkscape:window-y="31"
     inkscape:window-maximized="1" />
  <metadata
     id="metadata3341">
    <rdf:RDF>
      <cc:Work
         rdf:about="">
        <dc:format>image/svg+xml</dc:format>
        <dc:type
           rdf:resource="http://purl.org/dc/dcmitype/StillImage" />
        <dc:title></dc:title>
      </cc:Work>
    </rdf:RDF>
  </metadata>
  <g
     inkscape:label="Calque 1"
     inkscape:groupmode="layer"
     id="layer1"
     transform="translate(0,-912.36216)">
    <path
       style="fill:#000000;fill-opacity:1"
       d="M 52.75 -18.845703 A 20.788694 50.348623 68.421997 0 0 -13.214844 7.921875 A 20.788694 50.348623 68.421997 0 0 -0.98046875 34.691406 A 20.788694 50.348623 68.421997 0 0 -0.25195312 34.673828 L -0.25195312 2.3671875 L 60.728516 2.3671875 A 50.348623 20.788694 21.578003 0 1 65.732422 -16.775391 A 20.788694 50.348623 68.421997 0 0 52.75 -18.845703 z M 65.732422 -16.775391 A 20.788694 50.348623 68.421997 0 1 69.662109 2.3671875 L 128.54102 2.3671875 L 128.54102 34.900391 A 50.348623 20.788694 21.578003 0 0 131.56641 34.982422 A 50.348623 20.788694 21.578003 0 0 143.80273 8.2148438 A 50.348623 20.788694 21.578003 0 0 77.837891 -18.554688 A 50.348623 20.788694 21.578003 0 0 65.732422 -16.775391 z M 128.54102 34.900391 A 50.348623 20.788694 21.578003 0 1 65.601562 8.2148438 A 50.348623 20.788694 21.578003 0 1 65.154297 7.7441406 A 20.788694 50.348623 68.421997 0 1 64.986328 7.921875 A 20.788694 50.348623 68.421997 0 1 -0.25195312 34.673828 L -0.25195312 47.824219 L 128.54102 47.824219 L 128.54102 34.900391 z M 65.154297 7.7441406 A 20.788694 50.348623 68.421997 0 0 69.662109 2.3671875 L 60.728516 2.3671875 A 50.348623 20.788694 21.578003 0 0 65.154297 7.7441406 z "
       transform="translate(0,912.36216)"
       id="path3346" />
  </g>
</svg>
